<svg width="308" height="70" viewBox="0 0 308 70" fill="none" xmlns="http://www.w3.org/2000/svg">
<path d="M26.45 48L19.7 38.25H19.3H12.25V48H4.15V13H19.3C22.4 13 25.0833 13.5167 27.35 14.55C29.65 15.5833 31.4167 17.05 32.65 18.95C33.8833 20.85 34.5 23.1 34.5 25.7C34.5 28.3 33.8667 30.55 32.6 32.45C31.3667 34.3167 29.6 35.75 27.3 36.75L35.15 48H26.45ZM26.3 25.7C26.3 23.7333 25.6667 22.2333 24.4 21.2C23.1333 20.1333 21.2833 19.6 18.85 19.6H12.25V31.8H18.85C21.2833 31.8 23.1333 31.2667 24.4 30.2C25.6667 29.1333 26.3 27.6333 26.3 25.7ZM53.9176 42.15C55.3176 42.15 56.5509 41.95 57.6176 41.55C58.7176 41.1167 59.7342 40.45 60.6676 39.55L64.8176 44.05C62.2842 46.95 58.5842 48.4 53.7176 48.4C50.6842 48.4 48.0009 47.8167 45.6676 46.65C43.3342 45.45 41.5342 43.8 40.2676 41.7C39.0009 39.6 38.3676 37.2167 38.3676 34.55C38.3676 31.9167 38.9842 29.55 40.2176 27.45C41.4842 25.3167 43.2009 23.6667 45.3676 22.5C47.5676 21.3 50.0342 20.7 52.7676 20.7C55.3342 20.7 57.6676 21.25 59.7676 22.35C61.8676 23.4167 63.5342 24.9833 64.7676 27.05C66.0342 29.0833 66.6676 31.5 66.6676 34.3L46.7676 38.15C47.3342 39.4833 48.2176 40.4833 49.4176 41.15C50.6509 41.8167 52.1509 42.15 53.9176 42.15ZM52.7676 26.6C50.8009 26.6 49.2009 27.2333 47.9676 28.5C46.7342 29.7667 46.0842 31.5167 46.0176 33.75L59.1176 31.2C58.7509 29.8 58.0009 28.6833 56.8676 27.85C55.7342 27.0167 54.3676 26.6 52.7676 26.6ZM99.2105 21.1V48H91.7605V44.9C89.8272 47.2333 87.0272 48.4 83.3605 48.4C80.8272 48.4 78.5272 47.8333 76.4605 46.7C74.4272 45.5667 72.8272 43.95 71.6605 41.85C70.4939 39.75 69.9105 37.3167 69.9105 34.55C69.9105 31.7833 70.4939 29.35 71.6605 27.25C72.8272 25.15 74.4272 23.5333 76.4605 22.4C78.5272 21.2667 80.8272 20.7 83.3605 20.7C86.7939 20.7 89.4772 21.7833 91.4105 23.95V21.1H99.2105ZM84.7105 42C86.6772 42 88.3105 41.3333 89.6105 40C90.9105 38.6333 91.5605 36.8167 91.5605 34.55C91.5605 32.2833 90.9105 30.4833 89.6105 29.15C88.3105 27.7833 86.6772 27.1 84.7105 27.1C82.7105 27.1 81.0605 27.7833 79.7605 29.15C78.4605 30.4833 77.8105 32.2833 77.8105 34.55C77.8105 36.8167 78.4605 38.6333 79.7605 40C81.0605 41.3333 82.7105 42 84.7105 42ZM133.832 10.9V48H126.382V44.9C124.449 47.2333 121.649 48.4 117.982 48.4C115.449 48.4 113.149 47.8333 111.082 46.7C109.049 45.5667 107.449 43.95 106.282 41.85C105.115 39.75 104.532 37.3167 104.532 34.55C104.532 31.7833 105.115 29.35 106.282 27.25C107.449 25.15 109.049 23.5333 111.082 22.4C113.149 21.2667 115.449 20.7 117.982 20.7C121.415 20.7 124.099 21.7833 126.032 23.95V10.9H133.832ZM119.332 42C121.299 42 122.932 41.3333 124.232 40C125.532 38.6333 126.182 36.8167 126.182 34.55C126.182 32.2833 125.532 30.4833 124.232 29.15C122.932 27.7833 121.299 27.1 119.332 27.1C117.332 27.1 115.682 27.7833 114.382 29.15C113.082 30.4833 112.432 32.2833 112.432 34.55C112.432 36.8167 113.082 38.6333 114.382 40C115.682 41.3333 117.332 42 119.332 42ZM173.701 13V48H165.601V33.65H149.701V48H141.601V13H149.701V26.8H165.601V13H173.701ZM208.732 21.1V48H201.282V44.9C199.349 47.2333 196.549 48.4 192.882 48.4C190.349 48.4 188.049 47.8333 185.982 46.7C183.949 45.5667 182.349 43.95 181.182 41.85C180.015 39.75 179.432 37.3167 179.432 34.55C179.432 31.7833 180.015 29.35 181.182 27.25C182.349 25.15 183.949 23.5333 185.982 22.4C188.049 21.2667 190.349 20.7 192.882 20.7C196.315 20.7 198.999 21.7833 200.932 23.95V21.1H208.732ZM194.232 42C196.199 42 197.832 41.3333 199.132 40C200.432 38.6333 201.082 36.8167 201.082 34.55C201.082 32.2833 200.432 30.4833 199.132 29.15C197.832 27.7833 196.199 27.1 194.232 27.1C192.232 27.1 190.582 27.7833 189.282 29.15C187.982 30.4833 187.332 32.2833 187.332 34.55C187.332 36.8167 187.982 38.6333 189.282 40C190.582 41.3333 192.232 42 194.232 42ZM242.654 21.1L231.304 48H223.254L211.954 21.1H220.004L227.454 39.4L235.154 21.1H242.654ZM258.654 42.15C260.054 42.15 261.287 41.95 262.354 41.55C263.454 41.1167 264.471 40.45 265.404 39.55L269.554 44.05C267.021 46.95 263.321 48.4 258.454 48.4C255.421 48.4 252.737 47.8167 250.404 46.65C248.071 45.45 246.271 43.8 245.004 41.7C243.737 39.6 243.104 37.2167 243.104 34.55C243.104 31.9167 243.721 29.55 244.954 27.45C246.221 25.3167 247.937 23.6667 250.104 22.5C252.304 21.3 254.771 20.7 257.504 20.7C260.071 20.7 262.404 21.25 264.504 22.35C266.604 23.4167 268.271 24.9833 269.504 27.05C270.771 29.0833 271.404 31.5 271.404 34.3L251.504 38.15C252.071 39.4833 252.954 40.4833 254.154 41.15C255.387 41.8167 256.887 42.15 258.654 42.15ZM257.504 26.6C255.537 26.6 253.937 27.2333 252.704 28.5C251.471 29.7667 250.821 31.5167 250.754 33.75L263.854 31.2C263.487 29.8 262.737 28.6833 261.604 27.85C260.471 27.0167 259.104 26.6 257.504 26.6ZM292.997 20.7C296.33 20.7 299.014 21.7 301.047 23.7C303.114 25.7 304.147 28.6667 304.147 32.6V48H296.347V33.8C296.347 31.6667 295.88 30.0833 294.947 29.05C294.014 27.9833 292.664 27.45 290.897 27.45C288.93 27.45 287.364 28.0667 286.197 29.3C285.03 30.5 284.447 32.3 284.447 34.7V48H276.647V21.1H284.097V24.25C285.13 23.1167 286.414 22.25 287.947 21.65C289.48 21.0167 291.164 20.7 292.997 20.7Z" fill="#FF5252"/>
<path d="M164.765 60.885C164.765 59.915 164.915 59.095 165.215 58.425C165.525 57.755 165.915 57.215 166.385 56.805C166.865 56.395 167.395 56.1 167.975 55.92C168.565 55.73 169.14 55.635 169.7 55.635C170.26 55.635 170.83 55.715 171.41 55.875C172 56.025 172.53 56.3 173 56.7C173.48 57.09 173.87 57.625 174.17 58.305C174.48 58.985 174.635 59.85 174.635 60.9C174.635 61.88 174.48 62.705 174.17 63.375C173.87 64.045 173.48 64.59 173 65.01C172.53 65.43 172 65.735 171.41 65.925C170.83 66.105 170.26 66.195 169.7 66.195C169.14 66.195 168.565 66.105 167.975 65.925C167.395 65.745 166.865 65.45 166.385 65.04C165.915 64.63 165.525 64.085 165.215 63.405C164.915 62.725 164.765 61.885 164.765 60.885ZM173.21 60.96C173.21 59.61 172.895 58.585 172.265 57.885C171.645 57.185 170.81 56.835 169.76 56.835C169.23 56.835 168.745 56.92 168.305 57.09C167.875 57.25 167.5 57.495 167.18 57.825C166.87 58.155 166.625 58.57 166.445 59.07C166.275 59.56 166.19 60.14 166.19 60.81C166.19 62.16 166.5 63.195 167.12 63.915C167.75 64.635 168.59 64.995 169.64 64.995C170.16 64.995 170.64 64.915 171.08 64.755C171.52 64.585 171.895 64.33 172.205 63.99C172.525 63.65 172.77 63.23 172.94 62.73C173.12 62.23 173.21 61.64 173.21 60.96ZM176.716 55.77H177.916L183.286 63.885H183.316C183.296 63.595 183.281 63.285 183.271 62.955C183.251 62.675 183.236 62.355 183.226 61.995C183.226 61.625 183.226 61.25 183.226 60.87V55.77H184.426V66H183.226L177.856 57.855H177.826C177.836 58.155 177.851 58.47 177.871 58.8C177.881 59.09 177.891 59.415 177.901 59.775C177.911 60.135 177.916 60.505 177.916 60.885V66H176.716V55.77ZM187.073 55.77H188.333V64.8H192.983V66H187.073V55.77ZM194.558 55.77H195.818V66H194.558V55.77ZM198.455 55.77H199.655L205.025 63.885H205.055C205.035 63.595 205.02 63.285 205.01 62.955C204.99 62.675 204.975 62.355 204.965 61.995C204.965 61.625 204.965 61.25 204.965 60.87V55.77H206.165V66H204.965L199.595 57.855H199.565C199.575 58.155 199.59 58.47 199.61 58.8C199.62 59.09 199.63 59.415 199.64 59.775C199.65 60.135 199.655 60.505 199.655 60.885V66H198.455V55.77ZM208.811 55.77H215.081V56.925H210.071V60.195H214.721V61.32H210.071V64.845H215.231V66H208.811V55.77ZM220.706 55.77H223.436C224.516 55.77 225.296 55.97 225.776 56.37C226.266 56.77 226.511 57.38 226.511 58.2C226.511 58.58 226.456 58.91 226.346 59.19C226.246 59.47 226.131 59.705 226.001 59.895C225.851 60.115 225.686 60.305 225.506 60.465C225.746 60.555 225.971 60.67 226.181 60.81C226.391 60.95 226.576 61.12 226.736 61.32C226.896 61.52 227.021 61.76 227.111 62.04C227.211 62.31 227.261 62.63 227.261 63C227.261 63.41 227.206 63.8 227.096 64.17C226.986 64.53 226.801 64.845 226.541 65.115C226.281 65.385 225.936 65.6 225.506 65.76C225.076 65.92 224.541 66 223.901 66H220.706V55.77ZM221.966 60.21H224.471C224.611 60.1 224.736 59.955 224.846 59.775C224.946 59.625 225.036 59.44 225.116 59.22C225.196 58.99 225.236 58.715 225.236 58.395C225.236 57.805 225.081 57.41 224.771 57.21C224.471 57 224.046 56.895 223.496 56.895H221.966V60.21ZM221.966 64.875H224.006C224.666 64.875 225.161 64.705 225.491 64.365C225.821 64.025 225.986 63.57 225.986 63C225.986 62.75 225.951 62.52 225.881 62.31C225.821 62.1 225.711 61.92 225.551 61.77C225.391 61.61 225.176 61.485 224.906 61.395C224.636 61.305 224.301 61.26 223.901 61.26H221.966V64.875ZM228.779 60.885C228.779 59.915 228.929 59.095 229.229 58.425C229.539 57.755 229.929 57.215 230.399 56.805C230.879 56.395 231.409 56.1 231.989 55.92C232.579 55.73 233.154 55.635 233.714 55.635C234.274 55.635 234.844 55.715 235.424 55.875C236.014 56.025 236.544 56.3 237.014 56.7C237.494 57.09 237.884 57.625 238.184 58.305C238.494 58.985 238.649 59.85 238.649 60.9C238.649 61.88 238.494 62.705 238.184 63.375C237.884 64.045 237.494 64.59 237.014 65.01C236.544 65.43 236.014 65.735 235.424 65.925C234.844 66.105 234.274 66.195 233.714 66.195C233.154 66.195 232.579 66.105 231.989 65.925C231.409 65.745 230.879 65.45 230.399 65.04C229.929 64.63 229.539 64.085 229.229 63.405C228.929 62.725 228.779 61.885 228.779 60.885ZM237.224 60.96C237.224 59.61 236.909 58.585 236.279 57.885C235.659 57.185 234.824 56.835 233.774 56.835C233.244 56.835 232.759 56.92 232.319 57.09C231.889 57.25 231.514 57.495 231.194 57.825C230.884 58.155 230.639 58.57 230.459 59.07C230.289 59.56 230.204 60.14 230.204 60.81C230.204 62.16 230.514 63.195 231.134 63.915C231.764 64.635 232.604 64.995 233.654 64.995C234.174 64.995 234.654 64.915 235.094 64.755C235.534 64.585 235.909 64.33 236.219 63.99C236.539 63.65 236.784 63.23 236.954 62.73C237.134 62.23 237.224 61.64 237.224 60.96ZM240.175 60.885C240.175 59.915 240.325 59.095 240.625 58.425C240.935 57.755 241.325 57.215 241.795 56.805C242.275 56.395 242.805 56.1 243.385 55.92C243.975 55.73 244.55 55.635 245.11 55.635C245.67 55.635 246.24 55.715 246.82 55.875C247.41 56.025 247.94 56.3 248.41 56.7C248.89 57.09 249.28 57.625 249.58 58.305C249.89 58.985 250.045 59.85 250.045 60.9C250.045 61.88 249.89 62.705 249.58 63.375C249.28 64.045 248.89 64.59 248.41 65.01C247.94 65.43 247.41 65.735 246.82 65.925C246.24 66.105 245.67 66.195 245.11 66.195C244.55 66.195 243.975 66.105 243.385 65.925C242.805 65.745 242.275 65.45 241.795 65.04C241.325 64.63 240.935 64.085 240.625 63.405C240.325 62.725 240.175 61.885 240.175 60.885ZM248.62 60.96C248.62 59.61 248.305 58.585 247.675 57.885C247.055 57.185 246.22 56.835 245.17 56.835C244.64 56.835 244.155 56.92 243.715 57.09C243.285 57.25 242.91 57.495 242.59 57.825C242.28 58.155 242.035 58.57 241.855 59.07C241.685 59.56 241.6 60.14 241.6 60.81C241.6 62.16 241.91 63.195 242.53 63.915C243.16 64.635 244 64.995 245.05 64.995C245.57 64.995 246.05 64.915 246.49 64.755C246.93 64.585 247.305 64.33 247.615 63.99C247.935 63.65 248.18 63.23 248.35 62.73C248.53 62.23 248.62 61.64 248.62 60.96ZM252.127 55.77H253.387V60.495L257.677 55.77H259.252L255.322 60.06L259.852 66H258.277L254.452 60.99L253.387 62.16V66H252.127V55.77ZM269.725 57.18C269.485 57.12 269.235 57.065 268.975 57.015C268.745 56.965 268.48 56.925 268.18 56.895C267.89 56.855 267.585 56.835 267.265 56.835C266.525 56.835 265.995 56.95 265.675 57.18C265.355 57.4 265.195 57.745 265.195 58.215C265.205 58.585 265.34 58.9 265.6 59.16C265.86 59.41 266.185 59.645 266.575 59.865C266.965 60.075 267.39 60.285 267.85 60.495C268.32 60.695 268.75 60.93 269.14 61.2C269.53 61.46 269.855 61.77 270.115 62.13C270.385 62.48 270.52 62.91 270.52 63.42C270.52 64.01 270.39 64.485 270.13 64.845C269.88 65.205 269.56 65.485 269.17 65.685C268.78 65.885 268.35 66.02 267.88 66.09C267.42 66.16 266.98 66.195 266.56 66.195C266.16 66.195 265.795 66.17 265.465 66.12C265.135 66.07 264.85 66.015 264.61 65.955C264.33 65.885 264.075 65.805 263.845 65.715L264.145 64.5C264.375 64.6 264.62 64.685 264.88 64.755C265.11 64.815 265.365 64.87 265.645 64.92C265.935 64.97 266.24 64.995 266.56 64.995C266.95 64.995 267.305 64.97 267.625 64.92C267.955 64.87 268.24 64.79 268.48 64.68C268.72 64.57 268.905 64.425 269.035 64.245C269.175 64.065 269.245 63.845 269.245 63.585C269.235 63.195 269.105 62.88 268.855 62.64C268.615 62.39 268.29 62.155 267.88 61.935C267.48 61.705 267.045 61.485 266.575 61.275C266.115 61.065 265.69 60.825 265.3 60.555C264.91 60.285 264.58 59.965 264.31 59.595C264.05 59.225 263.92 58.765 263.92 58.215C263.92 57.895 263.975 57.58 264.085 57.27C264.195 56.96 264.38 56.685 264.64 56.445C264.91 56.205 265.255 56.01 265.675 55.86C266.105 55.71 266.635 55.635 267.265 55.635C267.625 55.635 267.965 55.655 268.285 55.695C268.615 55.725 268.9 55.76 269.14 55.8C269.42 55.85 269.685 55.905 269.935 55.965L269.725 57.18ZM274.53 56.94H271.32V55.77H279V56.94H275.79V66H274.53V56.94ZM279.682 60.885C279.682 59.915 279.832 59.095 280.132 58.425C280.442 57.755 280.832 57.215 281.302 56.805C281.782 56.395 282.312 56.1 282.892 55.92C283.482 55.73 284.057 55.635 284.617 55.635C285.177 55.635 285.747 55.715 286.327 55.875C286.917 56.025 287.447 56.3 287.917 56.7C288.397 57.09 288.787 57.625 289.087 58.305C289.397 58.985 289.552 59.85 289.552 60.9C289.552 61.88 289.397 62.705 289.087 63.375C288.787 64.045 288.397 64.59 287.917 65.01C287.447 65.43 286.917 65.735 286.327 65.925C285.747 66.105 285.177 66.195 284.617 66.195C284.057 66.195 283.482 66.105 282.892 65.925C282.312 65.745 281.782 65.45 281.302 65.04C280.832 64.63 280.442 64.085 280.132 63.405C279.832 62.725 279.682 61.885 279.682 60.885ZM288.127 60.96C288.127 59.61 287.812 58.585 287.182 57.885C286.562 57.185 285.727 56.835 284.677 56.835C284.147 56.835 283.662 56.92 283.222 57.09C282.792 57.25 282.417 57.495 282.097 57.825C281.787 58.155 281.542 58.57 281.362 59.07C281.192 59.56 281.107 60.14 281.107 60.81C281.107 62.16 281.417 63.195 282.037 63.915C282.667 64.635 283.507 64.995 284.557 64.995C285.077 64.995 285.557 64.915 285.997 64.755C286.437 64.585 286.812 64.33 287.122 63.99C287.442 63.65 287.687 63.23 287.857 62.73C288.037 62.23 288.127 61.64 288.127 60.96ZM291.633 55.77H294.153C294.703 55.77 295.203 55.82 295.653 55.92C296.113 56.01 296.503 56.17 296.823 56.4C297.143 56.62 297.388 56.915 297.558 57.285C297.728 57.655 297.813 58.12 297.813 58.68C297.803 59.3 297.698 59.805 297.498 60.195C297.298 60.575 297.053 60.885 296.763 61.125C296.473 61.355 296.138 61.525 295.758 61.635V61.665C295.798 61.705 295.858 61.78 295.938 61.89C296.028 61.99 296.103 62.08 296.163 62.16L299.058 66H297.573L294.603 61.935H292.893V66H291.633V55.77ZM296.538 58.89C296.538 58.47 296.483 58.13 296.373 57.87C296.273 57.6 296.118 57.395 295.908 57.255C295.708 57.115 295.458 57.02 295.158 56.97C294.858 56.92 294.518 56.895 294.138 56.895H292.893V60.81H294.378C294.768 60.81 295.098 60.76 295.368 60.66C295.638 60.56 295.858 60.425 296.028 60.255C296.198 60.075 296.323 59.87 296.403 59.64C296.483 59.41 296.528 59.16 296.538 58.89ZM300.32 55.77H306.59V56.925H301.58V60.195H306.23V61.32H301.58V64.845H306.74V66H300.32V55.77Z" fill="#0A0101"/>
</svg>
